# xmcd
#
# Track frame offsets: 
#        150
#        15085
#        26302
#        45685
#        58782
#        73840
#        88727
#        100252
#        113615
#        127287
#        141262
#        153357
#
# Disc length: 2317 seconds
#
# Revision: 2
# Processed by: cddbd v1.5.2PL0 Copyright (c) Steve Scherf et al.
# Submitted via: ExactAudioCopy v1.3
#
DISCID=9d090b0c
DTITLE=Fausto Papetti - I Grandi Successi Originali CD2
DYEAR=2000
DGENRE=Jazz
TTITLE0=All The Time In The World
TTITLE1=Smoke Gets In Your Eyes
TTITLE2=Reality
TTITLE3=Forever And Ever
TTITLE4=This Guy's In Love With You
TTITLE5=September Morn
TTITLE6=Song Song Blue
TTITLE7=Harmony
TTITLE8=What A Wonderful World
TTITLE9=Without You
TTITLE10=Unchained Melody
TTITLE11=Stayin' Alive
EXTD=
EXTT0=
EXTT1=
EXTT2=
EXTT3=
EXTT4=
EXTT5=
EXTT6=
EXTT7=
EXTT8=
EXTT9=
EXTT10=
EXTT11=
PLAYORDER=
